<?xml version="1.0" encoding="UTF-8"?><svg xmlns="http://www.w3.org/2000/svg" viewBox="0 0 24 24"><g id="a"/><g id="b"/><g id="c"/><g id="d"><path d="M20,21.93H4c-.55,0-1-.45-1-1s.45-1,1-1H20c.55,0,1,.45,1,1s-.45,1-1,1Z"/><path d="M19,16.93h-1V6.93h1c.55,0,1-.45,1-1s-.45-1-1-1H5c-.55,0-1,.45-1,1s.45,1,1,1h1v10h-1c-.55,0-1,.45-1,1s.45,1,1,1h14c.55,0,1-.45,1-1s-.45-1-1-1Zm-11,0V6.93h8v10H8Z"/><path d="M20,3.93H4c-.55,0-1-.45-1-1s.45-1,1-1H20c.55,0,1,.45,1,1s-.45,1-1,1Z"/><path d="M10,15.93c-.55,0-1-.45-1-1v-6c0-.55,.45-1,1-1s1,.45,1,1v6c0,.55-.45,1-1,1Z"/><path d="M14,15.93c-.55,0-1-.45-1-1v-6c0-.55,.45-1,1-1s1,.45,1,1v6c0,.55-.45,1-1,1Z"/></g></svg>